<?xml version="1.0" encoding="UTF-8" standalone="no"?>
<!-- Created with Inkscape (http://www.inkscape.org/) -->
<svg
   xmlns:dc="http://purl.org/dc/elements/1.1/"
   xmlns:cc="http://creativecommons.org/ns#"
   xmlns:rdf="http://www.w3.org/1999/02/22-rdf-syntax-ns#"
   xmlns:svg="http://www.w3.org/2000/svg"
   xmlns="http://www.w3.org/2000/svg"
   xmlns:sodipodi="http://sodipodi.sourceforge.net/DTD/sodipodi-0.dtd"
   xmlns:inkscape="http://www.inkscape.org/namespaces/inkscape"
   width="64px"
   height="64px"
   id="svg4702"
   sodipodi:version="0.32"
   inkscape:version="0.46"
   sodipodi:docname="rocks.svg"
   inkscape:output_extension="org.inkscape.output.svg.inkscape">
  <defs
     id="defs4704">
    <inkscape:perspective
       sodipodi:type="inkscape:persp3d"
       inkscape:vp_x="0 : 32 : 1"
       inkscape:vp_y="0 : 1000 : 0"
       inkscape:vp_z="64 : 32 : 1"
       inkscape:persp3d-origin="32 : 21.333333 : 1"
       id="perspective23" />
  </defs>
  <sodipodi:namedview
     id="base"
     pagecolor="#ffffff"
     bordercolor="#666666"
     borderopacity="1.0"
     inkscape:pageopacity="0.0"
     inkscape:pageshadow="2"
     inkscape:zoom="9.9927833"
     inkscape:cx="28.807349"
     inkscape:cy="31.343278"
     inkscape:current-layer="layer1"
     showgrid="true"
     inkscape:document-units="px"
     inkscape:grid-bbox="true"
     inkscape:window-width="1280"
     inkscape:window-height="1003"
     inkscape:window-x="0"
     inkscape:window-y="0">
    <inkscape:grid
       type="xygrid"
       id="grid4712" />
  </sodipodi:namedview>
  <metadata
     id="metadata4707">
    <rdf:RDF>
      <cc:Work
         rdf:about="">
        <dc:format>image/svg+xml</dc:format>
        <dc:type
           rdf:resource="http://purl.org/dc/dcmitype/StillImage" />
      </cc:Work>
    </rdf:RDF>
  </metadata>
  <g
     id="layer1"
     inkscape:label="Layer 1"
     inkscape:groupmode="layer">
    <rect
       style="opacity:1;fill:#d99300;fill-opacity:1;fill-rule:nonzero;stroke:none;stroke-width:0;stroke-linecap:butt;stroke-linejoin:miter;marker:none;marker-start:none;marker-mid:none;marker-end:none;stroke-miterlimit:4;stroke-dasharray:none;stroke-dashoffset:0;stroke-opacity:1;visibility:visible;display:inline;overflow:visible;enable-background:accumulate"
       id="rect5282"
       width="72"
       height="72"
       x="-4"
       y="-4" />
    <path
       style="fill:#5f5f5f;fill-opacity:1;fill-rule:evenodd;stroke:none;stroke-width:1px;stroke-linecap:butt;stroke-linejoin:miter;stroke-opacity:1"
       d="M 3.1719297,54.692434 C 3.4118645,54.692434 4.1699608,54.692434 4.6459346,54.692434 C 5.0596903,54.692434 5.4734461,54.692434 5.8872019,54.692434 C 6.3374904,54.692434 6.8025638,54.670904 7.2060483,54.764142 C 7.7648498,54.893271 8.1258184,55.07346 8.602474,55.337811 C 9.0909785,55.608734 9.4402968,55.968817 9.7661618,56.270023 C 10.158347,56.63253 10.372133,56.89733 10.619534,57.202235 C 10.797276,57.421292 10.852271,58.008571 10.852271,58.277864 C 10.852271,58.697457 11.002951,59.110921 11.002951,59.568619 C 11.002951,59.927162 11.002951,60.285705 11.002951,60.644248 C 11.002951,61.084912 11.047526,61.377029 10.774692,61.719877 C 10.403005,62.186948 10.196449,62.254365 9.7661618,62.65209 C 9.4108666,62.980499 8.701061,63.225759 8.2145779,63.225759 C 7.3929749,63.225759 6.5012851,63.416659 5.6544642,63.15198 C 4.5482476,62.806225 2.8653212,62.372111 2.3185584,61.361334 C 2.0198914,60.809203 1.7001642,59.700863 1.7001642,59.066659 C 1.7001642,58.497313 1.5878067,57.949398 2.0082416,57.560778 C 2.3220237,57.270741 2.526603,56.43303 2.6288752,56.054897 C 2.71546,55.734766 2.9381562,55.34164 3.0167713,55.050977 C 3.0505465,54.926099 3.1202102,54.811948 3.1719297,54.692434 z"
       id="path4737" />
    <path
       style="fill:#676767;fill-opacity:1;fill-rule:evenodd;stroke:none;stroke-width:1px;stroke-linecap:butt;stroke-linejoin:miter;stroke-opacity:1"
       d="M 9.1235058,2.2847615 C 9.3117008,1.6362848 7.5716172,2.2847615 6.7956719,2.2847615 C 6.0438371,2.2847615 5.2741751,2.2503648 4.5971622,2.3961672 C 3.8127949,2.5650898 3.226258,2.875242 2.7866258,3.0646015 C 2.054114,3.3801114 1.6890226,4.2329392 1.1054129,4.7356877 C 0.54018072,5.2226046 0.20014444,5.8055754 0.20014444,6.559986 C 0.20014444,7.2984236 0.20055534,7.8559587 0.45132623,8.4120766 C 0.79475436,9.1736732 1.0865577,9.4936479 1.4933851,10.194568 C 1.862541,10.830584 2.5352993,11.168495 3.0452742,11.754249 C 3.552006,12.336279 4.1779339,12.591643 4.5971622,13.313929 C 4.9530999,13.927171 5.5808938,14.71839 6.1490517,15.207826 C 6.8894636,15.845652 7.4785879,15.764855 8.4768854,15.764855 C 9.4798933,15.764855 10.025114,14.988168 10.675395,14.427987 C 11.50244,13.715532 12.062712,13.428683 12.744579,12.645494 C 13.246882,12.068552 13.565136,11.669724 14.296469,11.19722 C 14.942919,10.779559 15.593976,10.302298 16.107006,9.8603512 C 16.768294,9.2906873 17.012274,8.4043584 17.012274,7.6322359 C 17.012274,6.8384251 17.020771,6.3051266 16.624302,5.8497448 C 16.017257,5.1524953 16.011672,4.8133516 15.201737,4.2900646 C 14.575259,3.8853068 13.697638,3.6597737 13.003229,3.5102245 C 12.201451,3.3375526 11.286115,3.0491386 10.546071,2.7303843 C 10.123296,2.5482858 9.5881214,2.4448579 9.1235058,2.2847615 z"
       id="path4739" />
    <path
       style="fill:#757548;fill-opacity:1;fill-rule:evenodd;stroke:none;stroke-width:1px;stroke-linecap:butt;stroke-linejoin:miter;stroke-opacity:1"
       d="M 4.3219186,47.338954 C 4.3219186,46.8489 5.2185157,47.338954 5.6668143,47.338954 C 6.1400184,47.338954 6.6132224,47.338954 7.0864264,47.338954 C 7.584536,47.338954 8.0826455,47.338954 8.580755,47.338954 C 9.1037701,47.338954 9.6267851,47.338954 10.1498,47.338954 C 10.623004,47.338954 11.096208,47.338954 11.569412,47.338954 C 11.967899,47.338954 12.366387,47.338954 12.764875,47.338954 C 13.26082,47.338954 13.723507,47.335861 14.10977,47.43006 C 14.520895,47.530322 14.979197,47.407484 15.37995,47.502305 C 15.893398,47.62379 16.297893,47.855259 16.799562,47.992359 C 17.341909,48.140574 17.827362,48.360095 18.293891,48.564087 C 18.745592,48.761596 19.006715,49.076209 19.414637,49.299167 C 19.687705,49.448418 19.987826,50.107375 20.161802,50.360949 C 20.448356,50.778607 20.373198,51.353025 20.460668,51.831109 C 20.470436,51.884502 20.460668,51.940009 20.460668,51.99446 C 20.460668,52.487165 20.721808,53.21879 20.908966,53.627971 C 21.099588,54.044725 21.016467,54.815763 21.133115,55.261482 C 21.251643,55.714384 21.133115,56.428174 21.133115,56.894992 C 21.133115,57.35782 21.133115,57.820649 21.133115,58.283477 C 21.133115,58.746305 21.133115,59.209133 21.133115,59.671961 C 21.133115,60.134789 21.133115,60.597617 21.133115,61.060446 C 21.133115,61.605101 21.083492,62.020566 20.983683,62.530605 C 20.907124,62.921828 20.458362,63.328831 20.236518,63.510711 C 19.953738,63.742551 19.251371,63.087213 19.115772,62.938983 C 18.878478,62.679588 18.712751,62.324346 18.51804,62.040552 C 18.258128,61.661724 18.293891,61.310127 18.293891,60.815419 C 18.293891,60.248852 18.232531,59.908314 18.144458,59.426934 C 18.068859,59.013732 17.580192,58.658035 17.322578,58.446828 C 17.024229,58.202226 16.793615,57.675854 16.65013,57.466721 C 16.354219,57.035426 16.242586,56.694517 15.902965,56.323264 C 15.611348,56.004485 15.417592,55.711008 15.1558,55.424832 C 14.783034,55.017347 14.452055,54.573864 14.184488,54.281375 C 13.863534,53.930528 13.605919,53.562006 13.28789,53.301269 C 12.864695,52.95431 12.566318,52.512489 12.167144,52.076135 C 11.901511,51.785761 11.519364,51.640403 11.121114,51.422731 C 10.738689,51.21371 10.298625,50.932194 10.000367,50.694724 C 9.7488305,50.494454 8.981682,50.605976 8.6554715,50.605976 C 8.2818894,50.605976 7.9083071,50.605976 7.5347251,50.605976 C 7.0864264,50.605976 6.6381278,50.605976 6.1898293,50.605976 C 5.6917198,50.605976 5.1936103,50.605976 4.6955007,50.605976 C 4.297013,50.605976 3.8985254,50.605976 3.5000378,50.605976 C 3.1053143,50.605976 2.4647132,50.145118 2.2298585,49.952572 C 1.7695118,49.575154 2.161099,49.046 2.4540078,48.645762 C 2.7098066,48.296233 3.0519436,48.042936 3.5000378,47.747332 C 3.8542557,47.513657 3.8878086,47.444821 4.3219186,47.338954 z"
       id="path4743" />
    <path
       style="fill:#652d2d;fill-opacity:1;fill-rule:evenodd;stroke:none;stroke-width:1px;stroke-linecap:butt;stroke-linejoin:miter;stroke-opacity:1"
       d="M 25.444886,3.7238211 C 25.01571,3.8374561 23.605439,4.0766877 22.749333,4.3033627 C 21.659307,4.5919737 21.218554,5.0366398 20.748352,5.9065503 C 20.344181,6.6542936 20.052984,7.2996661 20.140767,8.0800082 C 20.230601,8.8785546 20.447345,9.6041376 20.783323,10.459151 C 21.137059,11.359355 22.175611,11.817722 22.738905,12.08812 C 23.564681,12.484517 24.213455,12.598738 24.985274,12.969235 C 25.597438,13.263093 27.509889,13.105815 28.184379,12.927227 C 29.375889,12.611746 30.567397,12.296265 31.758906,11.980783 C 32.91504,11.674669 33.805028,11.441829 34.660611,10.809969 C 35.597926,10.117751 35.540628,9.476064 36.158043,8.6692463 C 36.583908,8.1127427 36.664549,7.0241098 36.765625,6.4957887 C 36.885747,5.8679243 36.247483,4.8052285 35.99068,4.1517006 C 35.757112,3.5573071 34.086278,2.8431129 33.637929,2.6278912 C 32.990547,2.3171282 31.598647,2.3862116 30.920629,2.4081568 C 30.024179,2.4371721 29.398777,2.274415 28.478982,2.5179532 C 27.728771,2.7165897 26.978562,2.9152261 26.228353,3.1138624 C 25.706254,3.2521008 26.022876,3.1222467 25.444886,3.7238211 z"
       id="path4747" />
    <path
       style="fill:#6d4924;fill-opacity:1;fill-rule:evenodd;stroke:none;stroke-width:1px;stroke-linecap:butt;stroke-linejoin:miter;stroke-opacity:1"
       d="M 44.184556,0.18724846 C 43.640808,0.18724846 42.305054,0.32056308 41.421685,0.32056308 C 40.814694,0.32056308 40.281538,1.1859538 39.980186,1.5203942 C 39.440631,2.1191921 39.310459,3.1603033 39.139313,3.9200565 C 38.990038,4.5827155 39.139313,5.4959631 39.139313,6.1864041 C 39.139313,7.2941545 39.39323,7.980164 39.619811,8.9860103 C 39.766517,9.6372646 40.39596,10.529323 40.821061,11.119043 C 41.35212,11.855757 41.716611,12.379555 42.262558,12.985447 C 42.913463,13.707822 43.338127,14.234906 44.06443,14.718537 C 44.773867,15.190937 45.458079,15.89052 46.346803,16.051682 C 47.029738,16.175527 47.814003,16.051682 48.50905,16.051682 C 48.987602,16.051682 49.965841,14.88364 50.190797,14.585223 C 50.757263,13.833771 51.425474,13.158172 51.992669,12.318875 C 52.514594,11.546565 53.106367,11.176662 53.794542,10.985728 C 54.423118,10.81133 55.304737,10.985728 55.956789,10.985728 C 56.663175,10.985728 57.493727,10.648827 58.119036,10.319157 C 58.853411,9.9319817 59.72397,9.3270016 59.920908,8.4527522 C 60.114778,7.5921252 60.041034,6.6797544 60.041034,5.7864604 C 60.041034,4.9777939 59.436609,3.8814567 59.080035,3.3867982 C 58.514092,2.6016937 58.347993,2.1109101 57.638536,1.5203942 C 56.791464,0.81533373 55.898784,0.6044275 54.875665,0.32056308 C 53.840116,0.033249883 52.829913,0.053933962 51.752419,0.053933962 C 50.911546,0.053933962 50.070672,0.053933962 49.229798,0.053933962 C 48.469007,0.053933962 47.708216,0.053933962 46.947427,0.053933962 C 46.266719,0.053933962 45.586012,0.053933962 44.905304,0.053933962 C 44.661741,0.053933962 44.424805,0.1428103 44.184556,0.18724846 z"
       id="path4749" />
    <path
       style="fill:#474747;fill-opacity:1;fill-rule:evenodd;stroke:none;stroke-width:1px;stroke-linecap:butt;stroke-linejoin:miter;stroke-opacity:1"
       d="M 29.102686,16 C 28.933237,16 27.440497,16 26.524489,16 C 25.870661,16 24.987926,15.865263 24.204112,15.865263 C 23.145113,15.865263 22.83061,16.286199 22.270465,16.865985 C 21.709248,17.446878 21.062772,17.840389 20.723546,18.367068 C 20.416444,18.843872 19.919109,19.248712 19.305538,19.36779 C 18.673533,19.490446 18.128803,19.567935 17.371889,19.567935 C 16.892779,19.567935 15.699757,20.698262 15.438242,20.968946 C 14.979064,21.444223 14.730332,21.866198 14.535873,22.470029 C 14.318516,23.144961 14.441914,23.779423 14.664783,24.471474 C 14.886516,25.159996 15.610347,26.006089 16.211701,26.472918 C 16.917057,27.020483 17.502107,27.524183 18.403169,27.873929 C 19.530233,28.311397 20.497612,28.37429 21.754825,28.37429 C 22.657193,28.37429 23.559563,28.37429 24.461931,28.37429 C 25.500517,28.37429 26.104814,28.186933 26.911218,27.873929 C 27.66331,27.582006 28.225854,27.380493 28.715956,26.873207 C 29.268045,26.301761 29.510217,26.20818 29.747235,25.472196 C 29.938618,24.877916 30.063025,24.291465 30.262874,23.670896 C 30.488774,22.969435 30.60172,22.577934 31.294153,22.06974 C 31.975681,21.569551 32.985914,21.20985 33.74344,20.768802 C 34.390396,20.39213 34.96084,20.061551 35.419268,19.668007 C 36.09347,19.08923 36.158756,18.725443 36.321637,17.966779 C 36.467177,17.28889 35.801914,16.962887 35.419268,16.665841 C 34.904996,16.266613 33.950965,16.165479 33.227801,16.165479 C 32.511622,16.165479 31.673081,16.065407 30.907423,16.065407 C 30.293372,16.065407 29.714648,16.0621 29.102686,16 z"
       id="path4751" />
    <path
       style="fill:#735810;fill-opacity:1;fill-rule:evenodd;stroke:none;stroke-width:1px;stroke-linecap:butt;stroke-linejoin:miter;stroke-opacity:1"
       d="M 42.630765,20.868874 C 42.068809,20.868874 40.810955,20.868874 39.928815,20.868874 C 39.24876,20.868874 38.573976,20.85964 38.027443,20.968946 C 37.682577,21.037919 37.194289,22.300118 37.126793,22.570102 C 36.949424,23.279579 36.480263,23.903643 36.025999,24.471474 C 35.528209,25.093711 35.381483,25.572268 34.524915,25.572268 C 33.649135,25.572268 33.623286,25.776328 33.424121,26.57299 C 33.256826,27.242172 34.144265,27.933785 34.624988,28.174146 C 35.334023,28.528664 35.895809,28.474363 36.726504,28.474363 C 37.460367,28.474363 38.19423,28.474363 38.928093,28.474363 C 39.788298,28.474363 40.261725,29.149352 40.829465,29.575157 C 41.37858,29.986993 41.773387,30.819295 42.230476,31.276385 C 42.785502,31.83141 43.11806,31.955139 43.831632,31.776746 C 44.381095,31.63938 44.566208,30.64188 44.932426,30.275663 C 45.50942,29.698669 45.644242,29.319321 46.333437,28.974724 C 46.891959,28.695463 47.982076,28.874651 48.635098,28.874651 C 49.608034,28.874651 50.477592,28.789299 51.337048,28.574435 C 51.983173,28.412904 52.531326,27.680373 52.838131,27.373568 C 53.334104,26.877596 52.732321,25.96108 52.537915,25.572268 C 52.276102,25.048643 51.482925,24.708087 50.936759,24.571546 C 50.301679,24.412776 49.809635,24.118597 49.535748,23.570824 C 49.215275,22.929877 49.046971,22.493198 48.73517,21.869596 C 48.467177,21.333609 47.470638,21.103138 46.93387,20.968946 C 46.443475,20.846347 45.741868,20.968946 45.232643,20.968946 C 44.632209,20.968946 44.031776,20.968946 43.431343,20.968946 C 43.107192,20.968946 43.005645,20.94385 42.630765,20.868874 z"
       id="path4753" />
    <path
       style="fill:#3e5b45;fill-opacity:1;fill-rule:evenodd;stroke:none;stroke-width:1px;stroke-linecap:butt;stroke-linejoin:miter;stroke-opacity:1"
       d="M 58.99288,15.268665 C 58.409936,15.268665 57.826992,15.268665 57.244049,15.268665 C 56.693491,15.268665 56.142932,15.268665 55.592375,15.268665 C 54.912274,15.268665 54.232173,15.268665 53.552072,15.268665 C 52.962842,15.268665 52.331489,15.200633 51.803241,15.458034 C 51.268576,15.718564 50.939527,17.647025 50.831667,18.48794 C 50.669367,19.753304 51.681741,19.129929 51.934911,20.116832 C 52.516982,21.995315 55.324482,21.533788 56.481353,23.217578 C 56.861774,23.773685 56.600697,27.467931 56.977116,27.834768 C 57.59898,28.440805 56.519195,30.231803 57.244049,30.796927 C 57.787387,31.220535 58.282671,31.175666 58.895723,31.175666 C 59.478667,31.175666 60.06161,31.175666 60.644554,31.175666 C 66.396497,29.924488 64.048625,16.293614 58.99288,15.268665 z"
       id="path4755"
       sodipodi:nodetypes="csssssccssscc" />
    <path
       style="fill:#4d7156;fill-opacity:1;fill-rule:evenodd;stroke:none;stroke-width:1px;stroke-linecap:butt;stroke-linejoin:miter;stroke-opacity:1"
       d="M 8.1163271,20.327232 C 8.5388609,20.943574 8.7331121,21.119188 9.150347,21.727801 C 9.5192815,22.265959 9.8857524,22.692786 10.258226,23.236105 C 10.583065,23.709943 10.926356,24.102959 11.218387,24.528938 C 11.568972,25.040329 11.611644,25.422915 11.735397,26.144979 C 11.830708,26.701092 11.809256,27.278942 11.809256,27.868756 C 11.809256,28.634808 11.421461,29.107828 11.218387,29.700267 C 11.020224,30.278381 10.414991,30.872166 10.184367,31.208572 C 9.9278497,31.582749 9.505666,31.86518 9.2242057,32.07046 C 8.9422369,32.276111 8.2185665,32.07046 7.8947514,32.07046 C 7.6146534,32.07046 7.0968491,31.229784 6.93459,30.9931 C 6.6943078,30.642605 6.4876547,30.012437 6.3437214,29.592532 C 6.1379567,28.992242 5.9699084,28.32682 5.6789943,27.761019 C 5.4690505,27.352698 5.2230292,26.766474 5.0142672,26.36045 C -0.85323558,21.707888 3.6839786,14.368266 8.1163271,20.327232 z"
       id="path4757"
       sodipodi:nodetypes="csssssssssssscc" />
    <path
       style="fill:#62623c;fill-opacity:1;fill-rule:evenodd;stroke:none;stroke-width:1px;stroke-linecap:butt;stroke-linejoin:miter;stroke-opacity:1"
       d="M 60.330819,36.700506 C 60.82744,36.465122 59.261065,36.700506 58.726188,36.700506 C 58.135008,36.700506 57.543828,36.700506 56.952648,36.700506 C 55.809505,36.700506 55.70069,36.297599 54.925745,35.379346 C 54.378257,34.730612 53.793046,34.207901 53.067752,33.77819 C 52.955146,33.711476 52.842539,33.644761 52.729935,33.578046 C 52.076247,33.19076 51.518312,32.87754 50.787486,32.87754 C 50.196306,32.87754 49.605126,32.87754 49.013947,32.87754 C 48.496212,32.87754 47.942745,33.244901 47.493769,33.377902 C 46.408124,33.699505 45.295499,34.480153 44.284507,35.079129 C 43.673154,35.441334 43.175271,36.633913 43.017693,37.38079 C 42.769647,38.556453 43.18688,39.096597 43.862236,39.782524 C 44.501243,40.431533 45.22986,40.382957 46.058047,40.382957 C 46.833502,40.382957 47.512632,40.22918 48.053256,40.783246 C 48.459119,41.199199 49.001538,41.672869 49.351764,41.984112 C 49.994603,42.555402 50.254841,43.569911 50.956395,43.985557 C 51.617393,44.377174 52.026183,44.58599 52.814389,44.58599 C 53.377417,44.58599 53.940446,44.58599 54.503474,44.58599 C 55.0102,44.58599 55.516925,44.58599 56.023651,44.58599 C 56.558528,44.58599 57.093406,44.58599 57.628282,44.58599 C 58.312887,44.58599 58.968387,45.086351 59.73964,45.086351 C 60.521699,45.086351 61.344271,45.3985 61.344271,44.185701 C 61.344271,43.073869 61.259816,41.968067 61.259816,40.883318 C 61.259816,40.089326 61.136943,39.15461 61.006453,38.381512 C 60.995411,38.316093 61.006453,38.248083 61.006453,38.181368 C 61.006453,37.602524 60.650601,37.155013 60.330819,36.700506 z"
       id="path4759" />
    <path
       style="fill:#566e7e;fill-opacity:1;fill-rule:evenodd;stroke:none;stroke-width:1px;stroke-linecap:butt;stroke-linejoin:miter;stroke-opacity:1"
       d="M 15.795971,32 C 15.813611,31.984482 14.158797,32.096567 13.748338,32.277107 C 13.164434,32.533936 12.638101,32.959576 12.155735,33.277829 C 9.2211572,34.921416 5.5200466,37.43677 2.3916944,38.001101 C 0.081497026,38.417844 -0.3375834,41.139538 0.5524817,43.785412 C 2.8143671,47.552674 9.4503732,43.29676 13.975852,43.68534 C 14.734235,43.68534 15.492618,43.68534 16.251001,43.68534 C 17.032599,43.68534 17.876138,43.771102 18.526148,43.485195 C 19.383312,43.108172 19.619406,42.479249 19.77748,41.783967 C 19.91147,41.194611 20.232508,40.693049 20.232508,40.08274 C 20.232508,39.503612 20.669811,38.859773 20.801295,38.28144 C 20.9275,37.726332 20.915053,37.167035 20.915053,36.580212 C 20.915053,36.013136 20.915053,35.44606 20.915053,34.878984 C 20.915053,34.12782 20.762027,33.843718 20.232508,33.377901 C 19.703058,32.912144 19.289936,32.763166 18.639905,32.477251 C 18.200951,32.284177 17.454276,32.277107 16.933545,32.277107 C 16.723387,32.277107 15.960667,32.051262 15.795971,32 z"
       id="path4763"
       sodipodi:nodetypes="cscsccssssssssssc" />
    <path
       style="fill:#717171;fill-rule:evenodd;stroke:none;stroke-width:1px;stroke-linecap:butt;stroke-linejoin:miter;stroke-opacity:1;fill-opacity:1"
       d="M 33.324049,31.876818 C 32.497043,31.876818 31.38773,32.331114 30.522027,32.677396 C 29.906245,32.923708 29.291406,33.984649 28.920871,34.478695 C 28.337128,35.25702 28.42051,36.154157 28.42051,37.080573 C 28.42051,37.808405 28.298072,38.352074 27.920149,38.981945 C 27.536224,39.62182 26.837952,39.663681 26.218921,40 C 25.453612,40.415793 25.235217,40.365939 24.617766,40.98339 C 24.09096,41.510195 23.709957,42.212891 23.516971,42.984834 C 23.326989,43.744765 23.267762,44.440735 23.416899,45.186423 C 23.590357,46.053712 24.290077,46.616866 24.917982,47.087795 C 25.642867,47.631458 26.883206,47.888373 27.820077,47.888373 C 28.954229,47.888373 30.08838,47.888373 31.222532,47.888373 C 32.419753,47.888373 33.499525,47.76945 34.624988,47.488084 C 35.621764,47.23889 36.492756,47.154633 37.42701,46.687506 C 38.265946,46.268038 38.760269,46.244124 39.328382,45.48664 C 39.888112,44.740333 40.19671,44.116396 40.529249,43.285051 C 40.792815,42.626136 40.719162,41.745281 40.829465,41.083462 C 40.928068,40.491848 40.829465,39.783647 40.829465,39.18209 C 40.829465,38.383336 40.568604,37.759718 40.229032,37.080573 C 39.935378,36.493266 39.54823,36.027599 39.22831,35.57949 C 38.738329,34.893179 38.009878,34.169696 37.226865,33.77819 C 36.664358,33.496936 36.237485,33.081465 35.62571,32.87754 C 35.065518,32.690809 34.490671,32.393636 34.024554,32.277107 C 33.624406,32.17707 33.965214,32.261517 33.324049,31.876818 z"
       id="path4765" />
    <path
       style="fill:#393939;fill-opacity:1;fill-rule:evenodd;stroke:none;stroke-width:1px;stroke-linecap:butt;stroke-linejoin:miter;stroke-opacity:1"
       d="M 25.518416,63.235284 C 25.09213,63.19279 24.690183,62.539561 24.417621,62.142833 C 24.125295,61.717338 24.141795,61.031918 24,60.504157 C 23.81837,59.82813 23.91726,59.021119 23.91726,58.319254 C 23.91726,57.513714 23.88179,56.696252 24,55.915863 C 24.105659,55.218332 24.306192,54.629718 24.617766,53.949451 C 24.903844,53.324848 25.751956,52.838771 26.318994,52.529265 C 26.968355,52.174823 27.858065,52.092284 28.620655,52.092284 C 29.821521,52.092284 31.022388,52.092284 32.223254,52.092284 C 33.149372,52.092284 33.938724,51.990813 34.72506,52.42002 C 35.396075,52.78628 36.05201,53.189071 36.226143,53.949451 C 36.399193,54.705098 36.326215,55.56184 36.326215,56.35915 C 36.326215,57.304236 36.084857,57.753769 35.725782,58.537745 C 35.441289,59.158885 34.925277,59.630117 34.524915,60.067176 C 34.077271,60.555853 33.810977,61.197937 33.324049,61.596608 C 32.742483,62.072763 32.325417,62.796022 31.822966,63.34453 C 31.289547,63.926842 30.739862,64 30.021666,64 C 29.387875,64 28.754084,64 28.120293,64 C 27.617458,64 27.08056,63.825486 26.519138,63.672265 C 26.096518,63.556925 25.968893,63.481169 25.518416,63.235284 z"
       id="path4769" />
    <path
       style="fill:#2d2d2d;fill-opacity:1;fill-rule:evenodd;stroke:none;stroke-width:1px;stroke-linecap:butt;stroke-linejoin:miter;stroke-opacity:1"
       d="M 51.690046,46.830585 C 51.406,46.787556 50.05534,47.905679 49.746323,48.280175 C 49.364671,48.742693 48.400922,49.004968 47.653081,49.004968 C 46.778069,49.004968 45.645891,49.095566 44.662737,49.095566 C 43.55326,49.095566 42.867156,49.322691 41.97143,49.729762 C 41.095017,50.128056 40.284784,50.828045 40.027707,51.451148 C 39.747409,52.130524 39.728671,52.734849 39.728671,53.444332 C 39.728671,54.267768 40.626651,55.075651 41.522878,55.618716 C 42.504264,56.213382 43.576474,56.681884 44.513221,57.249502 C 45.428083,57.803857 46.848876,57.815079 47.503565,58.608491 C 48.004989,59.216162 48.600102,59.856812 49.297771,60.420477 C 49.46693,60.557145 49.696483,60.662074 49.895839,60.782873 C 50.69439,61.266752 52.326091,61.598268 53.484251,61.598268 C 54.499042,61.598268 54.61036,61.043204 54.829906,60.511076 C 55.177415,59.668791 55.919363,59.30733 56.773629,58.789689 C 57.577582,58.302538 58.753602,58.099212 59.763973,57.793098 C 60.781441,57.484832 61.447768,57.407004 62.156247,56.977704 C 63.00568,56.462994 63.599114,55.879149 63.950454,55.346917 C 64.375763,54.702631 63.698662,53.787697 63.352386,53.263134 C 62.834769,52.479016 62.010565,51.938216 61.259146,51.179351 C 60.655704,50.569929 59.013262,50.029235 58.418319,49.548564 C 58.29145,49.446062 58.119284,49.367365 57.969767,49.276766 C 57.282543,48.860345 56.835767,48.408425 56.325078,48.098977 C 55.699052,47.719638 55.07798,47.544408 54.530872,47.102384 C 53.939037,46.624225 53.428899,45.958134 52.587149,46.468189 C 50.378256,47.806657 52.671478,46.03766 51.241494,47.192982"
       id="path4771" />
  </g>
</svg>
