<?xml version="1.0" encoding="UTF-8" standalone="no"?>
<!-- Created with Inkscape (http://www.inkscape.org/) -->
<svg
   xmlns:dc="http://purl.org/dc/elements/1.1/"
   xmlns:cc="http://creativecommons.org/ns#"
   xmlns:rdf="http://www.w3.org/1999/02/22-rdf-syntax-ns#"
   xmlns:svg="http://www.w3.org/2000/svg"
   xmlns="http://www.w3.org/2000/svg"
   xmlns:sodipodi="http://sodipodi.sourceforge.net/DTD/sodipodi-0.dtd"
   xmlns:inkscape="http://www.inkscape.org/namespaces/inkscape"
   width="64px"
   height="64px"
   id="svg2383"
   sodipodi:version="0.32"
   inkscape:version="0.46"
   sodipodi:docname="soil.svg"
   inkscape:output_extension="org.inkscape.output.svg.inkscape"
   inkscape:export-filename="C:\Documents and Settings\Mike Davis\My Documents\My Programs\Seeder\svg\other svg\soil.png"
   inkscape:export-xdpi="22.5"
   inkscape:export-ydpi="22.5">
  <defs
     id="defs2385">
    <inkscape:perspective
       sodipodi:type="inkscape:persp3d"
       inkscape:vp_x="0 : 32 : 1"
       inkscape:vp_y="0 : 1000 : 0"
       inkscape:vp_z="64 : 32 : 1"
       inkscape:persp3d-origin="32 : 21.333333 : 1"
       id="perspective13" />
  </defs>
  <sodipodi:namedview
     id="base"
     pagecolor="#ffffff"
     bordercolor="#666666"
     borderopacity="1.0"
     inkscape:pageopacity="0.0"
     inkscape:pageshadow="2"
     inkscape:zoom="5.6672557"
     inkscape:cx="5.4539148"
     inkscape:cy="29.107827"
     inkscape:current-layer="layer1"
     showgrid="true"
     inkscape:document-units="px"
     inkscape:grid-bbox="true"
     inkscape:window-width="1280"
     inkscape:window-height="1003"
     inkscape:window-x="0"
     inkscape:window-y="0">
    <inkscape:grid
       type="xygrid"
       id="grid2393" />
  </sodipodi:namedview>
  <metadata
     id="metadata2388">
    <rdf:RDF>
      <cc:Work
         rdf:about="">
        <dc:format>image/svg+xml</dc:format>
        <dc:type
           rdf:resource="http://purl.org/dc/dcmitype/StillImage" />
      </cc:Work>
    </rdf:RDF>
  </metadata>
  <g
     id="layer1"
     inkscape:label="Layer 1"
     inkscape:groupmode="layer"
     style="display:inline">
    <path
       style="fill:#ba7e00;fill-opacity:1;fill-rule:evenodd;stroke:none;stroke-width:1px;stroke-linecap:butt;stroke-linejoin:miter;stroke-opacity:1"
       d="M -10.545455,39.454545 C -9.6842531,39.39096 -7.5278034,39.609224 -6.1818182,39.272727 C -4.2943903,38.80087 -2.3253992,38.296657 -0.54545455,38 C 1.400989,37.675593 3.7402404,36.675334 5.4545455,35.818182 C 6.7738673,35.158521 8.2425758,34.393902 9.8181818,34 C 10.060606,33.939394 10.30303,33.878788 10.545455,33.818182 C 12.177836,33.410086 13.743029,33.272727 15.454545,33.272727 C 17.095737,33.272727 18.855449,33.090909 20.545455,33.090909 C 21.818182,33.090909 23.090909,33.090909 24.363636,33.090909 C 25.636364,33.090909 26.909091,33.090909 28.181818,33.090909 C 29.515152,33.090909 30.848485,33.090909 32.181818,33.090909 C 33.515152,33.090909 34.848485,33.090909 36.181818,33.090909 C 38.30303,33.090909 40.424242,33.090909 42.545455,33.090909 C 44.060606,33.090909 45.575758,33.090909 47.090909,33.090909 C 48.606061,33.090909 50.121212,33.090909 51.636364,33.090909 C 53.361313,33.090909 54.837926,33.454545 56.545455,33.454545 C 57.841277,33.454545 59.496531,34.237769 60.727273,34.545455 C 60.969697,34.606061 61.212121,34.666667 61.454545,34.727273 C 62.79841,35.063239 63.857754,35.506738 65.090909,36 C 66.740397,36.659795 68.069637,38.433273 69.090909,39.454545 C 70.449096,40.812732 71.28483,43.484802 72,45.272727 C 72.824117,47.33302 72.727273,49.058278 72.727273,51.272727 C 72.727273,52.916328 72.802385,54.395229 72.181818,55.636364 C 71.542127,56.915747 70.738414,57.625222 69.636364,58.727273 C 68.442844,59.920792 65.202019,59.818182 63.636364,59.818182 C 61.236313,59.818182 58.801246,60 56.363636,60 C 53.878788,60 51.393939,60 48.909091,60 C 45.393939,60 41.878788,60 38.363636,60 C 35.272727,60 32.181818,60 29.090909,60 C 25.315378,60 21.42449,60.070624 17.818182,61.272727 C 15.559147,62.025739 12.38881,62.363636 10,62.363636 C 8.0797984,62.363636 6.0882289,62.840239 4.1818182,62.363636 C 2.4144277,61.921789 0.78992406,61.61253 -0.90909091,61.272727 C -3.104848,60.833576 -5.1739454,59.664995 -6.9090909,58.363636 C -8.1661206,57.420864 -9.2421566,55.940464 -9.6363636,54.363636 C -9.972689,53.018335 -10.20712,51.716973 -10.545455,50.363636 C -10.837661,49.194809 -10.909091,47.725876 -10.909091,46.545455 C -10.909091,45.333333 -10.909091,44.121212 -10.909091,42.909091 C -10.909091,41.687906 -11.004425,40.601972 -10.545455,39.454545 z"
       id="path3202" />
    <path
       style="fill:#d99300;fill-opacity:1;fill-rule:evenodd;stroke:none;stroke-width:1px;stroke-linecap:butt;stroke-linejoin:miter;stroke-opacity:1"
       d="M -2.5454545,48.363636 C -1.7764486,48.558594 -0.39709499,48.181818 0.72727273,48.181818 C 1.7575758,48.181818 2.7878788,48.181818 3.8181818,48.181818 C 4.7998296,48.181818 5.8940272,49.147793 6.5454545,49.636364 C 7.4664223,50.327089 7.8315808,50.740672 8.5454545,51.454545 C 9.1342943,52.043385 9.820342,53.215722 10.181818,53.818182 C 10.688996,54.663478 11.412487,55.412487 12,56 C 12.775761,56.775761 13.936859,56.727273 15.090909,56.727273 C 16.489799,56.727273 17.145705,55.881693 18,55.454545 C 18.886512,55.01129 19.413392,53.886772 20,52.909091 C 20.514343,52.051853 21.447421,50.734398 22.181818,50 C 22.826563,49.355256 23.496859,48.684959 24.181818,48 C 24.871181,47.310637 25.736798,46.747619 26.545455,46.545455 C 27.455139,46.318033 28.448836,46.363636 29.454545,46.363636 C 30.650106,46.363636 31.711433,46.545455 32.909091,46.545455 C 34.250478,46.545455 35.745227,47.003591 37.090909,47.272727 C 38.095361,47.473618 39.184824,47.93257 40.181818,48.181818 C 41.25776,48.450804 42.079063,49.059297 43.090909,49.818182 C 44.184696,50.638522 44.899299,51.813286 46,52.363636 C 46.913439,52.820356 48.273724,51.362639 48.545455,51.090909 C 49.62537,50.010994 50.745774,49.592599 52,49.090909 C 53.094952,48.652928 53.800662,47.913471 54.909091,47.636364 C 56.008712,47.361458 56.728034,48.214079 57.636364,48.363636 C 59.361519,48.647683 60.690984,48.365961 61.420268,48.312718 C 63.672539,48.148284 66.547393,47.782196 67.073271,48.176604 C 67.737601,48.674852 68.77697,49.782522 69.366946,50.405531 C 70.04123,51.117569 70.120247,51.446017 70.588755,52.363636 C 71.315844,53.787712 70.994802,55.262331 71.454545,56.181818 C 72.148644,57.570016 72.599969,59.381757 73.272727,60.727273 C 73.800862,61.783542 73.30537,64.927696 73.090909,66 C 72.743613,67.73648 71.128039,69.135406 70,70.545455 C 68.184281,72.815104 64.305,73.843312 61.818182,74.909091 C 57.729882,76.661219 52.511243,77.315933 48.181818,78.181818 C 38.486692,80.120843 27.91256,79.626747 18,79.272727 C 11.190469,79.02953 4.0577176,78.378066 -2.5454545,76.727273 C -5.569513,75.971258 -9.4130449,75.440216 -11.818182,73.636364 C -13.042666,72.718001 -14.013092,71.220359 -14.363636,69.818182 C -15.063588,67.018374 -14.665134,65.2992 -13.636364,62.727273 C -13.004068,61.146533 -11.843648,59.790939 -11.272727,58.363636 C -10.62497,56.744242 -9.3549021,55.685324 -8.3636364,54.363636 C -7.6165367,53.367503 -6.4275199,52.609338 -5.6363636,51.818182 C -5.4220889,51.603907 -5.1515152,51.454545 -4.9090909,51.272727 C -4.1447043,50.699437 -3.6192646,49.982901 -2.9090909,49.272727 C -2.6783099,49.041946 -2.6666667,48.666667 -2.5454545,48.363636 z"
       id="path3198"
       sodipodi:nodetypes="cssssssssssssssssssssssssssssssssssssssssssc" />
    <path
       style="fill:#7c5400;fill-opacity:1;fill-rule:evenodd;stroke:none;stroke-width:1px;stroke-linecap:butt;stroke-linejoin:miter;stroke-opacity:1"
       d="M -0.90909091,10.909091 C -1.9053985,10.948654 -3.0961549,12.276662 -4.1818182,13.090909 C -5.0923245,13.773789 -5.7906636,15.5905 -6.3636364,16.545455 C -6.9081727,17.453015 -7.1727137,18.872673 -7.4545455,20 C -7.8065375,21.407968 -7.4545455,23.441725 -7.4545455,24.909091 C -7.4545455,26.243969 -5.2954602,28.159085 -4.5454545,28.909091 C -3.7799294,29.674616 -2.8720103,30.291268 -2,30.727273 C -1.1005529,31.176996 0.48352145,30.909091 1.4545455,30.909091 C 2.6666667,30.909091 3.8787879,30.909091 5.0909091,30.909091 C 6.323487,30.909091 7.3614253,30.545455 8.5454545,30.545455 C 9.9393939,30.545455 11.333333,30.545455 12.727273,30.545455 C 14.589609,30.545455 16.15276,31.152013 17.818182,31.818182 C 19.304192,32.412586 20.870884,32.792359 22.363636,33.090909 C 23.855062,33.389194 25.055228,33.636364 26.727273,33.636364 C 28.061665,33.636364 29.173335,33.570303 30.363636,33.272727 C 30.606061,33.212121 30.848485,33.151515 31.090909,33.090909 C 32.554198,32.725087 33.893111,32.363636 35.454545,32.363636 C 36.778695,32.363636 38.116598,32 39.454545,32 C 40.495053,32 41.641402,31.818182 42.727273,31.818182 C 44.121212,31.818182 45.515152,31.818182 46.909091,31.818182 C 48.060606,31.818182 49.212121,31.818182 50.363636,31.818182 C 51.6051,31.818182 53.00436,32.841999 54,33.090909 C 55.243384,33.401755 56.206112,33.968495 57.272727,34.181818 C 58.781737,34.48362 59.018403,30.877869 60.363637,30.178009 C 62.125819,29.261232 64.546105,29.532124 65.535933,29.532124 C 66.241141,29.532124 67.921591,29.670671 68.526411,29.331263 C 69.578019,28.741129 69.173741,27.921411 69.551168,26.034278 C 69.799838,24.790925 69.800496,24.691901 69.272727,23.636364 C 68.626368,22.343644 68.357251,20.984036 67.818182,19.636364 C 67.384926,18.553223 67.013012,17.142957 66.727273,16 C 66.413925,14.746609 64.999367,13.340434 64.181818,12.727273 C 62.880577,11.751341 61.452817,10.772295 59.818182,10.363636 C 57.844707,9.8702677 55.957519,9.2656471 53.818182,8.9090909 C 51.107233,8.4572661 48.027831,8 45.272727,8 C 42.341405,8 39.519792,6.9090909 36.545455,6.9090909 C 34.152827,6.9090909 31.798237,6.7272727 29.454545,6.7272727 C 25.781555,6.7272727 21.951951,6.3732462 18.363636,7.0909091 C 15.641166,7.6354033 12.67105,9.4545455 9.8181818,9.4545455 C 7.2421258,9.4545455 5.0745877,10.545455 2.3636364,10.545455 C 1.1320234,10.545455 0.3049453,10.909091 -0.90909091,10.909091 z"
       id="path3200"
       sodipodi:nodetypes="cssssssssssssssssssssssssssssssssssssssc" />
    <path
       style="fill:#5d1e00;fill-opacity:1;fill-rule:evenodd;stroke:none;stroke-width:1px;stroke-linecap:butt;stroke-linejoin:miter;stroke-opacity:1"
       d="M -0.36363636,16.181818 C 0.21487597,16.181818 1.956573,16.181818 3.0909091,16.181818 C 4.3636364,16.181818 5.6363636,16.181818 6.9090909,16.181818 C 8,16.181818 9.0909091,16.181818 10.181818,16.181818 C 11.691465,16.181818 11.688721,16.415993 12.545455,17.272727 C 13.379984,18.107257 14.04576,18.954851 14.727273,19.636364 C 15.507212,20.416303 15.969389,20.363636 17.090909,20.363636 C 18.020194,20.363636 19.141666,20.545455 20.181818,20.545455 C 21.406852,20.545455 22.372352,20.03462 23.454545,19.818182 C 24.371006,19.63489 25.796859,18.203141 26.363636,17.636364 C 27.188525,16.811475 28.295725,16.431548 29.272727,15.454545 C 29.932516,14.794757 30.537045,14.188125 31.272727,13.636364 C 32.116378,13.003625 32.863545,12.204591 33.636364,11.818182 C 34.567984,11.352372 35.465726,11.454545 36.545455,11.454545 C 37.546141,11.454545 38.344456,12.263137 39.272727,12.727273 C 40.094012,13.137915 40.338405,13.79295 40.909091,14.363636 C 41.776068,15.230613 42.716395,15.951826 43.636364,16.181818 C 44.591585,16.420623 45.672194,16.363636 46.727273,16.363636 C 47.69697,16.363636 48.666667,16.363636 49.636364,16.363636 C 51.030303,16.363636 52.424242,16.363636 53.818182,16.363636 C 55.093585,16.363636 56.480551,16.470771 57.636364,16.181818 C 58.76254,15.900274 60.051498,16 61.272727,16 C 62.484848,16 63.69697,16 64.909091,16 C 66.363636,16 67.818182,16 69.272727,16 C 71.216344,16 71.272727,15.765527 71.272727,13.818182 C 71.272727,11.903854 70.498717,9.5377595 70.181818,7.6363636 C 69.858182,5.694548 69.818182,3.806667 69.818182,1.8181818 C 69.818182,-0.36363636 69.818182,-2.5454545 69.818182,-4.7272727 C 69.818182,-6.8715599 70.506886,-8 68.181818,-8 C 61.813755,-8 55.529519,-8.9090909 49.090909,-8.9090909 C 42.220642,-8.9090909 35.440329,-9.8181818 28.545455,-9.8181818 C 21.503989,-9.8181818 14.492287,-8.9090909 7.4545455,-8.9090909 C 3.3525566,-8.9090909 -0.66283376,-8.5454545 -4.7272727,-8.5454545 C -6.2424242,-8.5454545 -7.7575758,-8.5454545 -9.2727273,-8.5454545 C -10.542872,-8.5454545 -10.545455,-0.84160427 -10.545455,0 C -10.545455,2.5922845 -9.7959329,5.1687804 -9.0909091,7.6363636 C -8.6248917,9.2674243 -8.1818182,11.184083 -8.1818182,12.727273 C -8.1818182,13.706988 -7.7074698,14.766879 -7.4545455,15.272727 C -7.0246525,16.132513 -4.8821257,16.181818 -4,16.181818 C -2.8207381,16.181818 -1.4080093,15.972944 -0.36363636,16.181818 z"
       id="path3192" />
    <path
       style="fill:#9b6900;fill-opacity:1;fill-rule:evenodd;stroke:none;stroke-width:1px;stroke-linecap:butt;stroke-linejoin:miter;stroke-opacity:1"
       d="M -1.6363636,28 C -1.1180825,28 0.56220422,28 1.6363636,28 C 2.5863518,28 3.5047162,28.032912 4.3636364,27.818182 C 5.440593,27.548943 6.0651296,26.665536 7.2727273,26.363636 C 7.9775637,26.187427 9.0557452,25.108491 9.8181818,24.727273 C 10.973203,24.149762 11.799514,24 13.090909,24 C 13.924919,24 14.900701,25.627974 15.454545,26.181818 C 16.325179,27.052452 16.792208,27.594156 17.818182,28.363636 C 18.472303,28.854227 20.030037,28.727273 20.909091,28.727273 C 22.181818,28.727273 23.454545,28.727273 24.727273,28.727273 C 26.044615,28.727273 27.132098,28.671521 28.363636,28.363636 C 29.663661,28.03863 30.094201,28.087617 30.909091,27.272727 C 31.586909,26.59491 32.200045,26.122693 33.090909,25.454545 C 33.861116,24.87689 34.924245,24.35606 35.636364,24 C 36.438092,23.599136 37.609048,24.220444 38.181818,24.363636 C 38.895068,24.541949 39.631231,26.171552 39.818182,26.545455 C 40.287375,27.48384 41.180305,27.748865 42,28.363636 C 42.69803,28.887159 44.915228,28.545455 45.818182,28.545455 C 46.727273,28.545455 47.636364,28.545455 48.545455,28.545455 C 49.575758,28.545455 50.744329,28.029899 51.636364,28.545455 C 53.022358,29.346498 52.634328,30.223149 53.752029,30.781999 C 54.868131,31.34005 55.89377,30.780456 56.909091,30.545455 C 58.79516,30.108915 61.006911,27.76601 61.94287,28 C 63.106272,28.290851 65.648612,28.091407 66.910497,28.091407 C 68.033566,28.091407 69.636425,29.291403 70.535434,29.066651 C 71.601809,28.800057 72.584898,30.561665 72.836726,31.647789 C 73.311367,33.694899 71.515233,34.121375 72,35.090909 C 72.406829,35.904566 72.363636,37.055773 72.363636,38.181818 C 72.363636,39.223695 71.584238,40.026063 70.909091,40.363636 C 69.936128,40.850118 68.340361,40.545455 67.272727,40.545455 C 66.181818,40.545455 65.090909,40.545455 64,40.545455 C 62.909091,40.545455 61.818182,40.545455 60.727273,40.545455 C 59.729957,40.545455 58.543956,40.54508 57.818182,40.363636 C 56.648321,40.071171 56.024049,39.114958 55.272727,38.363636 C 54.531277,37.622186 54.309486,37.063834 53.272727,36.545455 C 52.256348,36.037265 51.154444,36.181818 50,36.181818 C 48.88973,36.181818 47.775004,36.101704 46.727273,36.363636 C 46.125112,36.514176 45.272499,37.954717 44.727273,38.363636 C 44.090422,38.841274 42.784836,39.11576 42,39.272727 C 40.854769,39.501774 39.819292,39.545177 38.727273,39.818182 C 38.60968,39.84758 38.484848,39.818182 38.363636,39.818182 C 37.297914,39.818182 36.316793,40.363636 35.090909,40.363636 C 34.060606,40.363636 33.030303,40.363636 32,40.363636 C 30.969697,40.363636 29.939394,40.363636 28.909091,40.363636 C 27.761131,40.363636 27.256186,40.082639 26.363636,39.636364 C 25.425185,39.167138 25.054957,38.609399 24,37.818182 C 23.147224,37.1786 22.481463,36.786186 21.636364,36.363636 C 20.825429,35.958169 19.832915,36 18.909091,36 C 17.939394,36 16.969697,36 16,36 C 14.876087,36 14.265045,36.379001 13.818182,37.272727 C 13.446884,38.015322 12.082812,38.826279 11.636364,39.272727 C 10.986748,39.922343 9.7530538,40.578019 9.0909091,40.909091 C 8.0205009,41.444295 8.2390933,41.771734 6.6344593,41.198957 C 4.9465103,40.596441 5.2349732,40.697136 5.1137611,40.757742 C 4.0851207,41.272062 2.879581,39.963134 1.9414645,40.076174 C 0.76982564,40.217352 -0.86175478,39.709374 -2.0242576,40 C -2.9784264,40.238542 -2.7009391,40.099025 -3.6948992,40.099025 C -4.4904785,40.099025 -4.4758655,39.867322 -4.9052822,39.437905 C -5.8298741,38.513313 -5.6477896,39.746245 -5.6477896,38.316526 C -5.6477896,37.286223 -6.1818182,38.30303 -6.1818182,37.272727 C -6.1818182,36.115019 -6.076567,35.215359 -5.8181818,34.181818 C -5.5382728,33.062182 -5.1668109,32.303607 -4.9090909,31.272727 C -4.7162835,30.501498 -3.5418796,29.692203 -3.0909091,29.090909 C -2.7768306,28.672138 -1.9938814,28.286014 -1.6363636,28 z"
       id="path3194"
       sodipodi:nodetypes="cssssssssssssssssssssssssssssssssssssssssssssssssssssssssssssssc" />
  </g>
</svg>
